<?xml version="1.0" encoding="UTF-8"?>
<svg version="1.1" xmlns="http://www.w3.org/2000/svg" width="512" height="512">
<path d="M0 0 C1.37091797 0.60134766 1.37091797 0.60134766 2.76953125 1.21484375 C38.70276706 18.95013181 58.85352251 64.20102902 77.13525391 97.6015625 C79.69813934 102.27233565 82.28672019 106.92861284 84.87744141 111.58398438 C86.15383156 113.87845913 87.42828931 116.17401006 88.70068359 118.47070312 C91.45746167 123.44567128 94.22550905 128.41177267 97.05859375 133.34375 C106.75702247 150.27042975 109.63947157 163.90904119 104.59262085 183.19136047 C103.01931456 188.87241031 101.37982314 194.53217634 99.69958496 200.18231201 C98.73769347 203.43449431 97.80164452 206.69409242 96.86328125 209.953125 C95.19399113 215.733766 93.50300025 221.5076339 91.79986572 227.27838135 C90.84891632 230.51407648 89.91902538 233.75511103 89 237 C100.58156694 243.4523862 112.23974933 249.68601161 124.125 255.5625 C166.40058836 276.59090148 166.40058836 276.59090148 175 299 C176.77865535 305.00166766 177.58425623 311.19671222 178.47265625 317.37890625 C178.74904371 319.15608766 179.02835222 320.93281681 179.31031799 322.7091217 C179.90941335 326.49634699 180.49613489 330.28520959 181.07550049 334.07550049 C182.48665745 343.22000499 184.08129146 352.33365225 185.64728928 361.45261765 C186.7249106 367.75639079 187.77735911 374.06440102 188.83249474 380.37196922 C189.72995628 385.73316102 190.63304433 391.09327908 191.54858398 396.45141602 C192.45792196 401.7744979 193.35266635 407.09985263 194.23765755 412.42703438 C194.57025337 414.414231 194.90777739 416.40061066 195.25082207 418.3860302 C198.89862565 439.53810343 200.96121245 458.49739961 188 477 C181.35024329 486.20607021 172.02835664 492.29493139 161 495 C160.24976563 495.18691406 159.49953125 495.37382812 158.7265625 495.56640625 C155.9017226 496.01562864 153.18293355 496.03453025 150.32788086 496.03662109 C144.00647799 496.11535082 139.74282457 496.33525469 134.9375 500.875 C134.32777344 501.57367188 133.71804688 502.27234375 133.08984375 502.9921875 C127.01353434 508.82998757 119.89191905 508.4319071 111.95024109 508.39440918 C110.73850072 508.40050028 109.52676036 508.40659139 108.27830058 508.41286707 C104.926988 508.4266093 101.5761668 508.42695646 98.22486317 508.4214921 C94.60578171 508.41881725 90.98676245 508.43336227 87.3677063 508.44558716 C80.28194281 508.46662464 73.19626117 508.47118296 66.11047014 508.46939927 C60.34936616 508.46809072 54.58828767 508.47190053 48.82718849 508.47932434 C47.16655773 508.48142358 45.50592697 508.48352118 43.8452962 508.48561716 C43.01870149 508.48666069 42.19210677 508.48770422 41.34046374 508.48877937 C25.71280953 508.50767517 10.08520228 508.50663365 -5.54245862 508.49981004 C-19.82958844 508.49423586 -34.11653887 508.51505581 -48.40362678 508.54817051 C-63.0827732 508.58192912 -77.76183375 508.59707309 -92.44101971 508.59245348 C-100.67856853 508.59021088 -108.91595158 508.59542116 -117.15346718 508.62034607 C-124.16706232 508.64138736 -131.18040081 508.64492335 -138.1940066 508.62604648 C-141.77006154 508.61690563 -145.34563833 508.61569397 -148.92165565 508.63640213 C-152.80442985 508.65863729 -156.68649385 508.64185299 -160.56929016 508.62145996 C-161.69099855 508.63397781 -162.81270694 508.64649566 -163.9684065 508.65939283 C-171.2644229 508.57737507 -176.93412606 507.19927107 -183 503 C-184.50051481 501.30467367 -184.50051481 501.30467367 -185.625 499.75 C-187.88152478 497.23138594 -189.01773704 496.99764039 -192.46484375 496.5390625 C-194.53941893 496.43188794 -196.6118775 496.37372417 -198.68847656 496.32006836 C-213.16632979 495.87156605 -225.18126593 489.71303329 -235.03125 479.2734375 C-244.65268626 468.16296944 -246.88205151 455.34399774 -246.22175598 440.94046402 C-245.42697008 430.40167571 -243.44019417 419.95939069 -241.68928623 409.54452109 C-241.07583075 405.87935563 -240.47760614 402.21169869 -239.87713623 398.54438782 C-238.86814145 392.39632214 -237.84788087 386.25021164 -236.8203125 380.10522461 C-235.6383804 373.03646005 -234.47307687 365.96511055 -233.31689763 358.89209145 C-232.1957293 352.03492518 -231.06417351 345.17951384 -229.92751312 338.32489967 C-229.44766555 335.43062147 -228.97109079 332.53583396 -228.49723053 329.64056969 C-227.83340244 325.5888709 -227.15425727 321.53987791 -226.47363281 317.4909668 C-226.28229767 316.31298523 -226.09096252 315.13500366 -225.89382935 313.92132568 C-223.18321999 298.00331626 -218.71606333 284.62310384 -206 274 C-199.35610289 269.6046892 -192.2717801 265.98399147 -185.1640625 262.41015625 C-184.16345795 261.90254257 -183.16285339 261.39492889 -182.13192749 260.87193298 C-178.96470452 259.26529882 -175.79517016 257.66331013 -172.625 256.0625 C-168.4483845 253.95340511 -164.27428161 251.8394476 -160.1015625 249.72265625 C-159.16680084 249.25263687 -158.23203918 248.78261749 -157.26895142 248.2983551 C-150.35520699 244.79040121 -143.66138254 240.96474478 -137 237 C-137.22550537 236.23595352 -137.45101074 235.47190704 -137.68334961 234.68470764 C-139.82540106 227.41200716 -141.94493991 220.13327034 -144.04072571 212.84711552 C-145.11844004 209.1032089 -146.20409285 205.36203264 -147.30957031 201.6262207 C-148.38011554 198.00728962 -149.42760783 194.38234732 -150.46072388 190.75256157 C-150.8546924 189.38271354 -151.25632695 188.0150415 -151.66647339 186.64995003 C-156.52829688 170.42496777 -156.92948923 155.46701874 -149.1015625 140.14453125 C-147.95281054 138.02833899 -146.79345379 135.91787799 -145.625 133.8125 C-145.00359131 132.67611084 -144.38218262 131.53972168 -143.74194336 130.36889648 C-138.70027783 121.16309867 -133.53574971 112.02565896 -128.33984375 102.90625 C-125.98289864 98.75903402 -123.669041 94.59072381 -121.37890625 90.40625 C-77.81027213 10.87041492 -77.81027213 10.87041492 -42 -2.5 C-28.65563607 -6.16315873 -12.64970938 -5.62797391 0 0 Z " fill="#7B8A8D" transform="translate(280,4)"/>
<path d="M0 0 C1.57554917 -0.01320486 1.57554917 -0.01320486 3.18292761 -0.02667648 C6.70267186 -0.04757382 10.22020735 -0.01843606 13.73986816 0.01054382 C16.26301264 0.00597001 18.78615319 -0.00162705 21.3092804 -0.01202393 C27.4509648 -0.02915141 33.5918294 -0.01373411 39.73343813 0.01693962 C46.88693337 0.05136178 54.04028223 0.04954772 61.19384283 0.04646113 C73.95850675 0.04227139 86.72286485 0.07224428 99.48742676 0.12089539 C111.87063686 0.16807335 124.25354136 0.18932437 136.63684082 0.18241882 C152.27812042 0.17375317 167.91921311 0.1879762 183.56045946 0.2211712 C188.54557945 0.23107767 193.53066449 0.23281605 198.51579285 0.23182106 C205.22671582 0.23098398 211.93723558 0.25224591 218.64807701 0.28821373 C221.11275588 0.29830567 223.57747318 0.30160637 226.04216957 0.29766846 C229.40325191 0.29347032 232.76330957 0.31383656 236.12426758 0.34057617 C237.5918735 0.33026138 237.5918735 0.33026138 239.08912802 0.31973821 C244.86866949 0.39830015 248.14794881 1.03719175 252.56213379 4.86869812 C254.05871915 7.86186885 253.69563551 10.92662305 253.68238831 14.20845032 C253.68324432 14.97193283 253.68410034 15.73541534 253.6849823 16.52203369 C253.68664445 19.10196731 253.68110261 21.68183678 253.67565918 24.26176453 C253.67535302 26.13430975 253.67548604 28.00685508 253.67602444 29.87940025 C253.6762508 34.90771823 253.67044226 39.93601256 253.663414 44.96432495 C253.6577318 49.67748593 253.65745158 54.39064107 253.65673828 59.10380554 C253.65148464 72.90043955 253.63752357 86.69706913 253.62463379 100.49369812 C253.60400879 131.30744812 253.58338379 162.12119812 253.56213379 193.86869812 C164.46213379 193.86869812 75.36213379 193.86869812 -16.43786621 193.86869812 C-16.56161621 163.32307312 -16.68536621 132.77744812 -16.81286621 101.30619812 C-16.86749023 91.65941833 -16.92211426 82.01263855 -16.97839355 72.0735321 C-17.00549316 60.29850769 -17.00549316 60.29850769 -17.01052856 54.78704834 C-17.01612131 50.93547859 -17.03861591 47.08440443 -17.07131958 43.23297119 C-17.11249185 38.31907564 -17.12481051 33.40590015 -17.11629987 28.49184811 C-17.11807929 26.68914292 -17.1299684 24.88641243 -17.153157 23.08385551 C-17.18306474 20.64558316 -17.17579209 18.21009715 -17.15939331 15.77175903 C-17.1768693 15.06863618 -17.19434528 14.36551332 -17.21235085 13.64108372 C-17.12404391 8.74675869 -15.70574919 5.65443478 -12.38790572 2.20717806 C-8.56849628 -0.41441134 -4.49008537 -0.08105164 0 0 Z " fill="#FEFEFE" transform="translate(137.4378662109375,310.1313018798828)"/>
<path d="M0 0 C1.37091797 0.60134766 1.37091797 0.60134766 2.76953125 1.21484375 C38.70276706 18.95013181 58.85352251 64.20102902 77.13525391 97.6015625 C79.69813934 102.27233565 82.28672019 106.92861284 84.87744141 111.58398438 C86.15383156 113.87845913 87.42828931 116.17401006 88.70068359 118.47070312 C91.45746167 123.44567128 94.22550905 128.41177267 97.05859375 133.34375 C106.75702247 150.27042975 109.63947157 163.90904119 104.59262085 183.19136047 C103.01931456 188.87241031 101.37982314 194.53217634 99.69958496 200.18231201 C98.73769347 203.43449431 97.80164452 206.69409242 96.86328125 209.953125 C95.19399113 215.733766 93.50300025 221.5076339 91.79986572 227.27838135 C90.84891632 230.51407648 89.91902538 233.75511103 89 237 C100.58156694 243.4523862 112.23974933 249.68601161 124.125 255.5625 C166.40058836 276.59090148 166.40058836 276.59090148 175 299 C176.77865535 305.00166766 177.58425623 311.19671222 178.47265625 317.37890625 C178.74904371 319.15608766 179.02835222 320.93281681 179.31031799 322.7091217 C179.90941335 326.49634699 180.49613489 330.28520959 181.07550049 334.07550049 C182.48665745 343.22000499 184.08129146 352.33365225 185.64728928 361.45261765 C186.7249106 367.75639079 187.77735911 374.06440102 188.83249474 380.37196922 C189.72995628 385.73316102 190.63304433 391.09327908 191.54858398 396.45141602 C192.45792196 401.7744979 193.35266635 407.09985263 194.23765755 412.42703438 C194.57025337 414.414231 194.90777739 416.40061066 195.25082207 418.3860302 C198.89862565 439.53810343 200.96121245 458.49739961 188 477 C181.35024329 486.20607021 172.02835664 492.29493139 161 495 C160.24976563 495.18691406 159.49953125 495.37382812 158.7265625 495.56640625 C155.9017226 496.01562864 153.18293355 496.03453025 150.32788086 496.03662109 C144.00647799 496.11535082 139.74282457 496.33525469 134.9375 500.875 C134.32777344 501.57367188 133.71804688 502.27234375 133.08984375 502.9921875 C127.01353434 508.82998757 119.89191905 508.4319071 111.95024109 508.39440918 C110.73850072 508.40050028 109.52676036 508.40659139 108.27830058 508.41286707 C104.926988 508.4266093 101.5761668 508.42695646 98.22486317 508.4214921 C94.60578171 508.41881725 90.98676245 508.43336227 87.3677063 508.44558716 C80.28194281 508.46662464 73.19626117 508.47118296 66.11047014 508.46939927 C60.34936616 508.46809072 54.58828767 508.47190053 48.82718849 508.47932434 C47.16655773 508.48142358 45.50592697 508.48352118 43.8452962 508.48561716 C43.01870149 508.48666069 42.19210677 508.48770422 41.34046374 508.48877937 C25.71280953 508.50767517 10.08520228 508.50663365 -5.54245862 508.49981004 C-19.82958844 508.49423586 -34.11653887 508.51505581 -48.40362678 508.54817051 C-63.0827732 508.58192912 -77.76183375 508.59707309 -92.44101971 508.59245348 C-100.67856853 508.59021088 -108.91595158 508.59542116 -117.15346718 508.62034607 C-124.16706232 508.64138736 -131.18040081 508.64492335 -138.1940066 508.62604648 C-141.77006154 508.61690563 -145.34563833 508.61569397 -148.92165565 508.63640213 C-152.80442985 508.65863729 -156.68649385 508.64185299 -160.56929016 508.62145996 C-161.69099855 508.63397781 -162.81270694 508.64649566 -163.9684065 508.65939283 C-171.2644229 508.57737507 -176.93412606 507.19927107 -183 503 C-184.50051481 501.30467367 -184.50051481 501.30467367 -185.625 499.75 C-187.88152478 497.23138594 -189.01773704 496.99764039 -192.46484375 496.5390625 C-194.53941893 496.43188794 -196.6118775 496.37372417 -198.68847656 496.32006836 C-213.16632979 495.87156605 -225.18126593 489.71303329 -235.03125 479.2734375 C-244.65268626 468.16296944 -246.88205151 455.34399774 -246.22175598 440.94046402 C-245.42697008 430.40167571 -243.44019417 419.95939069 -241.68928623 409.54452109 C-241.07583075 405.87935563 -240.47760614 402.21169869 -239.87713623 398.54438782 C-238.86814145 392.39632214 -237.84788087 386.25021164 -236.8203125 380.10522461 C-235.6383804 373.03646005 -234.47307687 365.96511055 -233.31689763 358.89209145 C-232.1957293 352.03492518 -231.06417351 345.17951384 -229.92751312 338.32489967 C-229.44766555 335.43062147 -228.97109079 332.53583396 -228.49723053 329.64056969 C-227.83340244 325.5888709 -227.15425727 321.53987791 -226.47363281 317.4909668 C-226.28229767 316.31298523 -226.09096252 315.13500366 -225.89382935 313.92132568 C-223.18321999 298.00331626 -218.71606333 284.62310384 -206 274 C-199.35610289 269.6046892 -192.2717801 265.98399147 -185.1640625 262.41015625 C-184.16345795 261.90254257 -183.16285339 261.39492889 -182.13192749 260.87193298 C-178.96470452 259.26529882 -175.79517016 257.66331013 -172.625 256.0625 C-168.4483845 253.95340511 -164.27428161 251.8394476 -160.1015625 249.72265625 C-159.16680084 249.25263687 -158.23203918 248.78261749 -157.26895142 248.2983551 C-150.35520699 244.79040121 -143.66138254 240.96474478 -137 237 C-137.22550537 236.23595352 -137.45101074 235.47190704 -137.68334961 234.68470764 C-139.82540106 227.41200716 -141.94493991 220.13327034 -144.04072571 212.84711552 C-145.11844004 209.1032089 -146.20409285 205.36203264 -147.30957031 201.6262207 C-148.38011554 198.00728962 -149.42760783 194.38234732 -150.46072388 190.75256157 C-150.8546924 189.38271354 -151.25632695 188.0150415 -151.66647339 186.64995003 C-156.52829688 170.42496777 -156.92948923 155.46701874 -149.1015625 140.14453125 C-147.95281054 138.02833899 -146.79345379 135.91787799 -145.625 133.8125 C-145.00359131 132.67611084 -144.38218262 131.53972168 -143.74194336 130.36889648 C-138.70027783 121.16309867 -133.53574971 112.02565896 -128.33984375 102.90625 C-125.98289864 98.75903402 -123.669041 94.59072381 -121.37890625 90.40625 C-77.81027213 10.87041492 -77.81027213 10.87041492 -42 -2.5 C-28.65563607 -6.16315873 -12.64970938 -5.62797391 0 0 Z M-74 32 C-91.76027164 53.16655489 -104.92740323 78.47095641 -118.13525391 102.6015625 C-120.69829445 107.27261833 -123.28707247 111.92916014 -125.87768555 116.58496094 C-127.76493461 119.97700834 -129.64819006 123.37125079 -131.53125 126.765625 C-133.70498958 130.67979263 -135.89096741 134.58648238 -138.09375 138.484375 C-138.5580542 139.30929443 -139.0223584 140.13421387 -139.50073242 140.98413086 C-140.34031221 142.47437327 -141.18385691 143.96239317 -142.0324707 145.44750977 C-142.39945068 146.10033936 -142.76643066 146.75316895 -143.14453125 147.42578125 C-143.45753174 147.97661377 -143.77053223 148.52744629 -144.09301758 149.0949707 C-151.08167654 163.77397632 -145.30714786 178.70701973 -140.9375 193.25 C-140.03084106 196.33562578 -139.12986575 199.42287736 -138.22892761 202.51017761 C-137.63669554 204.53707198 -137.0421655 206.56329642 -136.44526672 208.58882141 C-134.80343822 214.1723486 -133.22813883 219.76313827 -131.7890625 225.40234375 C-131.48750244 226.57829102 -131.18594238 227.75423828 -130.87524414 228.96582031 C-130.35809394 231.01577946 -129.8509397 233.06830557 -129.35717773 235.12402344 C-126.35351542 246.89459224 -120.54558188 257.31516053 -110.04296875 263.8359375 C-108.0919796 264.98298889 -106.12029 266.09593171 -104.125 267.1640625 C-102 269 -102 269 -101.6875 272.2109375 C-101.790625 273.13132812 -101.89375 274.05171875 -102 275 C-112.38631904 272.49521851 -121.45113465 266.00408993 -127.6328125 257.28515625 C-129.79480785 253.67153545 -131.50342242 249.93200196 -133 246 C-138.22787278 247.53031086 -142.73870244 249.85757234 -147.5 252.4375 C-154.58793349 256.22878477 -161.73005379 259.87907866 -168.9375 263.4375 C-176.36159938 267.12395387 -183.71863313 270.91346679 -191 274.875 C-191.81847412 275.31513428 -192.63694824 275.75526855 -193.48022461 276.20874023 C-200.19698321 279.90496131 -205.53099131 283.62283929 -209.6875 290.25 C-210.24824219 291.12140625 -210.80898437 291.9928125 -211.38671875 292.890625 C-216.09443335 301.96408947 -217.3447793 311.85572853 -218.9609375 321.81640625 C-219.23553662 323.47576134 -219.51074702 325.13501537 -219.78652954 326.79417419 C-220.51121862 331.1652461 -221.22689406 335.5377487 -221.94085693 339.9105835 C-222.64987011 344.24151469 -223.368542 348.57084164 -224.0859375 352.90039062 C-225.34388521 360.50274647 -226.58707816 368.10740365 -227.81827927 375.71413612 C-228.59014608 380.48245726 -229.36972205 385.24941019 -230.15644646 390.0153017 C-230.63707194 392.93822935 -231.11022902 395.86232941 -231.58125687 398.78681755 C-231.9016301 400.76315022 -232.23035642 402.73812328 -232.55941772 404.71302795 C-234.94350424 416.9824627 -234.94350424 416.9824627 -232.6015625 428.83203125 C-225.06555108 436.38293597 -217.25380607 441.08531893 -207 444 C-206.01 444.33 -205.02 444.66 -204 445 C-201.19573548 445.08518867 -198.4170365 445.1158852 -195.61328125 445.09765625 C-194.79627243 445.0962413 -193.97926361 445.09482635 -193.13749695 445.09336853 C-190.52912732 445.08777294 -187.92084366 445.07522129 -185.3125 445.0625 C-183.54362103 445.05748443 -181.77474072 445.05292162 -180.00585938 445.04882812 C-175.67053981 445.03780496 -171.33528448 445.02054338 -167 445 C-166.99853344 444.32708168 -166.99706688 443.65416336 -166.99555588 442.96085358 C-166.95846298 426.56793451 -166.89941553 410.17525531 -166.81609726 393.78250885 C-166.77633107 385.85500256 -166.74392634 377.9275952 -166.72900391 370 C-166.71597477 363.08823915 -166.68897814 356.17669617 -166.64538693 349.26505804 C-166.62280019 345.60720861 -166.60708762 341.94962762 -166.60811615 338.29170227 C-166.60900369 334.20262482 -166.57870063 330.1143367 -166.54589844 326.02539062 C-166.55344398 324.21708771 -166.55344398 324.21708771 -166.56114197 322.37225342 C-166.47905281 315.75413794 -166.16980039 310.3368701 -162 305 C-156.19502634 299.91693673 -150.77599285 299.28251126 -143.29039001 299.37854004 C-142.23493707 299.37215122 -141.17948412 299.3657624 -140.09204775 299.35917997 C-136.56740444 299.34396093 -133.04389069 299.36437214 -129.51928711 299.38476562 C-126.98762134 299.38126355 -124.45595777 299.37560401 -121.92430115 299.36795044 C-115.76933432 299.3551845 -109.61478437 299.36562918 -103.45985334 299.38706368 C-96.28815909 299.41111902 -89.11653991 299.40935655 -81.94481427 299.40675777 C-69.14697886 299.40307061 -56.34929894 299.42386768 -43.55151367 299.45800781 C-31.14034089 299.49110417 -18.72933125 299.50526458 -6.31811523 299.49902344 C7.20669621 299.49225573 20.7314394 299.49472991 34.25624079 299.51438284 C35.32950692 299.51594207 35.32950692 299.51594207 36.42445521 299.5175328 C37.86140529 299.51962364 39.29835534 299.52173462 40.73530536 299.52386597 C45.73149721 299.53075408 50.727668 299.53143213 55.7238636 299.52998352 C62.45033733 299.5283915 69.1765885 299.54331722 75.90302086 299.56921005 C78.37212809 299.57637419 80.84125606 299.5784543 83.3103714 299.57509232 C86.67958394 299.57137969 90.04822678 299.58611842 93.41737366 299.60559082 C94.39539147 299.60026289 95.37340928 299.59493497 96.381064 299.58944559 C102.60577691 299.65155174 107.75764742 300.28443697 112.70703125 304.4296875 C116.51892149 309.41343092 118.24236852 313.29839459 118.2784729 319.57453918 C118.29521812 321.23823044 118.29521812 321.23823044 118.31230164 322.93553162 C118.31554192 324.74598717 118.31554192 324.74598717 118.31884766 326.59301758 C118.32889328 327.87146545 118.3389389 329.14991333 118.34928894 330.46710205 C118.37654956 333.96461563 118.39172659 337.46208901 118.40471697 340.9596808 C118.4203648 344.61791729 118.44714974 348.27607192 118.4727478 351.93424988 C118.51950638 358.85787414 118.5562646 365.78151385 118.58942068 372.70521516 C118.62766273 380.58914949 118.67706742 388.47300154 118.72740483 396.35686648 C118.83068123 412.5711852 118.91995555 428.7855496 119 445 C123.81972791 445.04982621 128.6393024 445.08591929 133.45922852 445.10986328 C135.09532283 445.11985617 136.73139959 445.13345507 138.36743164 445.15087891 C150.81789187 445.32253621 150.81789187 445.32253621 163 443 C164.34384766 442.62681641 164.34384766 442.62681641 165.71484375 442.24609375 C172.8051862 439.66665458 177.80511206 435.40450622 183 430 C183.77601563 429.30777344 184.55203125 428.61554688 185.3515625 427.90234375 C189.1985479 421.12909694 185.48064924 410.25919329 184.1796875 402.84375 C183.91046478 401.27635323 183.91046478 401.27635323 183.63580322 399.67729187 C183.25154653 397.44205038 182.8654322 395.20712756 182.4776001 392.97250366 C181.45022013 387.05219147 180.43635362 381.12956554 179.421875 375.20703125 C179.21688385 374.01201492 179.0118927 372.8169986 178.8006897 371.58576965 C176.54572159 358.40717759 174.40802143 345.21002931 172.29638672 332.0078125 C171.54724678 327.33577144 170.78074491 322.66685913 170 318 C169.87689453 317.25664398 169.75378906 316.51328796 169.62695312 315.74740601 C167.83349964 304.74108617 167.83349964 304.74108617 163.75 294.4375 C163.20859375 293.36371094 162.6671875 292.28992188 162.109375 291.18359375 C156.95756395 283.40817521 150.77232535 279.38405708 142.5 275.3125 C140.44252903 274.26988501 138.38524259 273.2269058 136.328125 272.18359375 C135.27947266 271.65749512 134.23082031 271.13139648 133.15039062 270.58935547 C128.15636982 268.06989829 123.20485404 265.47037974 118.25 262.875 C117.30672852 262.38394775 116.36345703 261.89289551 115.39160156 261.38696289 C110.72618071 258.95802916 106.0724965 256.50998839 101.4375 254.0234375 C100.12410645 253.32178467 100.12410645 253.32178467 98.78417969 252.60595703 C97.13617669 251.72416429 95.49083083 250.83738121 93.84863281 249.94482422 C92.75566895 249.36112061 92.75566895 249.36112061 91.640625 248.765625 C91.00672852 248.42305664 90.37283203 248.08048828 89.71972656 247.72753906 C87.85072779 246.80518854 87.85072779 246.80518854 85 247 C84.74347656 247.60585937 84.48695313 248.21171875 84.22265625 248.8359375 C79.04108755 260.17607101 70.44779297 269.67581696 59 275 C56.140625 274.70703125 56.140625 274.70703125 54 274 C54.08203125 271.8046875 54.08203125 271.8046875 55 269 C57.21021444 267.17913459 59.29621555 265.66056486 61.6875 264.125 C74.7079589 255.25471001 78.26268381 245.43292674 82.3125 230.4375 C82.92174089 228.22261936 83.53111986 226.00777669 84.140625 223.79296875 C84.44806641 222.66810059 84.75550781 221.54323242 85.07226562 220.38427734 C86.26115288 216.04734179 87.47013756 211.71621071 88.68408203 207.38623047 C89.26873411 205.29883732 89.85045069 203.2106197 90.42919922 201.12158203 C91.81255368 196.14354841 93.2364075 191.18683844 94.7734375 186.25390625 C99.53248119 170.83645976 101.3910952 159.28616858 93.66308594 144.42993164 C92.16130407 141.72545159 90.61987984 139.04783531 89.0625 136.375 C84.44141794 128.33176629 79.94020678 120.24066305 75.5625 112.0625 C69.98985839 101.6873779 64.12336449 91.50484143 58.14453125 81.359375 C55.66144676 77.14538927 53.25317803 72.89882718 50.875 68.625 C36.43655066 43.31923165 17.84708687 15.03507731 -11.03125 5.31640625 C-37.16158821 -1.75243524 -57.73607435 13.35144874 -74 32 Z M-157.98389339 311.98535311 C-159.62913082 315.2473853 -159.81020435 318.3352508 -159.7215271 321.90306091 C-159.72666321 322.66674988 -159.73179932 323.43043884 -159.73709106 324.2172699 C-159.74697464 326.76868353 -159.71397163 329.3177012 -159.68115234 331.86889648 C-159.67931326 333.73203742 -159.68011712 335.59518253 -159.68334389 337.45832157 C-159.68469614 342.43903573 -159.64997227 347.41888157 -159.60768127 352.39939117 C-159.57346116 357.07622454 -159.57189994 361.75284884 -159.56762695 366.42980957 C-159.53616766 380.09915432 -159.4524004 393.76833819 -159.375 407.4375 C-159.25125 437.983125 -159.1275 468.52875 -159 500 C-69.9 500 19.2 500 111 500 C111.103125 469.248125 111.20625 438.49625 111.3125 406.8125 C111.35802002 397.09530518 111.40354004 387.37811035 111.45043945 377.36645508 C111.46715954 368.67129197 111.46715954 368.67129197 111.47721863 359.97612 C111.48188516 356.09702821 111.50065456 352.21827706 111.52787781 348.33927917 C111.56212606 343.39393216 111.57246489 338.44908179 111.56536138 333.50362718 C111.56684714 331.6870707 111.57679077 329.87049718 111.59607565 328.05404246 C111.62090024 325.60223589 111.6149716 323.15236556 111.60127258 320.70051575 C111.61583591 319.98767772 111.63039923 319.27483969 111.64540386 318.54040051 C111.58698484 314.65793876 111.09661532 313.11688696 108.58742046 310.08121777 C105.32131927 307.4540963 103.84212584 306.87535954 99.75699997 306.85739899 C98.8614854 306.85109105 97.96597084 306.84478311 97.04331946 306.83828402 C96.05326415 306.83642202 95.06320884 306.83456002 94.04315186 306.8326416 C92.99620344 306.82684822 91.94925503 306.82105483 90.87058091 306.81508589 C87.33918087 306.79695288 83.80779691 306.78613332 80.27636719 306.77539062 C77.75381828 306.76422069 75.23127087 306.75270754 72.70872498 306.74087524 C64.40479569 306.70425942 56.10085234 306.67902956 47.796875 306.65625 C46.73806183 306.65328765 46.73806183 306.65328765 45.65785849 306.65026546 C31.64548556 306.61110632 17.63310379 306.5773959 3.62069321 306.55518341 C0.53928362 306.55021399 -2.54212583 306.54516968 -5.62353516 306.54003906 C-6.38941829 306.53876839 -7.15530142 306.53749772 -7.94439313 306.53618854 C-20.35284276 306.51482569 -32.76102767 306.46582838 -45.1693441 306.40579492 C-57.90467342 306.34468667 -70.63986613 306.30999744 -83.37534022 306.3007102 C-90.5275575 306.29479658 -97.67932635 306.27701815 -104.83139801 306.22932434 C-111.55875892 306.18450439 -118.28523247 306.17513386 -125.0127697 306.18995285 C-127.48394624 306.18962319 -129.95515435 306.17726909 -132.42620277 306.15210342 C-135.79679535 306.11958427 -139.16459872 306.13008969 -142.53521729 306.15148926 C-143.51634971 306.13178149 -144.49748213 306.11207372 -145.50834584 306.09176874 C-151.34396255 306.18551807 -154.51305094 307.12277434 -157.98389339 311.98535311 Z " fill="#343434" transform="translate(280,4)"/>
<path d="M0 0 C1.08667969 -0.08121094 1.08667969 -0.08121094 2.1953125 -0.1640625 C17.86715329 -0.52973879 34.81737739 9.65819213 48.9375 15.6875 C51.41164723 16.73946716 53.88633687 17.7901441 56.36134338 18.84008789 C57.93486397 19.50787502 59.50790707 20.17678859 61.08042908 20.84692383 C65.82204436 22.86275195 70.58406423 24.79931745 75.41455078 26.59448242 C82.09929004 29.68211603 86.55865983 35.14229494 89.52734375 41.75390625 C91.13560669 46.96408527 91.93882196 53.11259583 89.58572388 58.20965576 C89.25724457 58.82979553 88.92876526 59.4499353 88.59033203 60.08886719 C86.24621108 64.66919842 84.29250351 69.36560386 82.36328125 74.1328125 C81.80449532 75.50250687 81.80449532 75.50250687 81.23442078 76.89987183 C80.0491553 79.80705326 78.86821851 82.71596933 77.6875 85.625 C76.91500685 87.52225487 76.14222245 89.41939118 75.36914062 91.31640625 C74.98700409 92.25498474 74.60486755 93.19356323 74.21115112 94.1605835 C73.43660912 96.06109685 72.6606653 97.9610395 71.8833313 99.8604126 C69.89286746 104.73166747 67.93556092 109.6123496 66.03271484 114.51855469 C65.64641403 115.49952118 65.26011322 116.48048767 64.86210632 117.49118042 C64.13486297 119.33943738 63.41873196 121.19212667 62.71662903 123.05007935 C59.618232 130.86012873 55.07831168 138.44724357 47.75 142.9375 C47.03585937 143.38996094 46.32171875 143.84242188 45.5859375 144.30859375 C40.64142387 146.97304014 36.52163272 147.80396504 30.92944336 147.82226562 C30.19696381 147.83219543 29.46448425 147.84212524 28.70980835 147.85235596 C26.29478126 147.88147798 23.88001736 147.89518623 21.46484375 147.90625 C20.21992755 147.91473213 20.21992755 147.91473213 18.94986153 147.92338562 C14.55290589 147.95333078 10.15608069 147.97181078 5.7590332 147.98046875 C1.24554758 147.99139827 -3.26671908 148.03937605 -7.77982426 148.09641266 C-11.27430029 148.13391837 -14.76849098 148.14409006 -18.26315117 148.1471405 C-19.92516134 148.15314369 -21.58716953 148.16903003 -23.24897957 148.19551086 C-34.72620088 148.36526178 -43.93260906 147.32736294 -53.00680542 139.42605591 C-58.78605383 133.6718286 -61.7954287 126.534431 -64.9375 119.125 C-65.49323876 117.84532163 -66.05006303 116.56611419 -66.60791016 115.28735352 C-68.30808433 111.36982765 -69.96967749 107.43664293 -71.625 103.5 C-72.13562988 102.29166504 -72.64625977 101.08333008 -73.17236328 99.83837891 C-76.42736029 92.0988143 -79.56708268 84.31937167 -82.625 76.5 C-83.00479004 75.5414209 -83.38458008 74.5828418 -83.77587891 73.59521484 C-92.38313857 51.66158278 -92.38313857 51.66158278 -88.765625 40.95703125 C-82.89017177 28.9445464 -71.46247059 24.8753097 -59.8125 20.25 C-58.20702527 19.59956358 -56.60213098 18.94769275 -54.99780273 18.29443359 C-51.7638006 16.98012343 -48.52649171 15.67453222 -45.28613281 14.37597656 C-40.98875486 12.6513112 -36.70687723 10.89122648 -32.4296875 9.1171875 C-30.01587272 8.11919131 -27.60166155 7.12215734 -25.1875 6.125 C-24.08237061 5.66706055 -22.97724121 5.20912109 -21.83862305 4.73730469 C-20.8206665 4.32125977 -19.80270996 3.90521484 -18.75390625 3.4765625 C-17.87806885 3.11643066 -17.00223145 2.75629883 -16.09985352 2.38525391 C-10.83345719 0.50146649 -5.55496763 0.16554539 0 0 Z " fill="#506367" transform="translate(255.625,120.5)"/>
<path d="M0 0 C1.57554917 -0.01320486 1.57554917 -0.01320486 3.18292761 -0.02667648 C6.70267186 -0.04757382 10.22020735 -0.01843606 13.73986816 0.01054382 C16.26301264 0.00597001 18.78615319 -0.00162705 21.3092804 -0.01202393 C27.4509648 -0.02915141 33.5918294 -0.01373411 39.73343813 0.01693962 C46.88693337 0.05136178 54.04028223 0.04954772 61.19384283 0.04646113 C73.95850675 0.04227139 86.72286485 0.07224428 99.48742676 0.12089539 C111.87063686 0.16807335 124.25354136 0.18932437 136.63684082 0.18241882 C152.27812042 0.17375317 167.91921311 0.1879762 183.56045946 0.2211712 C188.54557945 0.23107767 193.53066449 0.23281605 198.51579285 0.23182106 C205.22671582 0.23098398 211.93723558 0.25224591 218.64807701 0.28821373 C221.11275588 0.29830567 223.57747318 0.30160637 226.04216957 0.29766846 C229.40325191 0.29347032 232.76330957 0.31383656 236.12426758 0.34057617 C237.5918735 0.33026138 237.5918735 0.33026138 239.08912802 0.31973821 C244.86866949 0.39830015 248.14794881 1.03719175 252.56213379 4.86869812 C253.89302489 7.53048033 253.67482372 9.55609208 253.65979004 12.53276062 C253.65656738 13.654245 253.65334473 14.77572937 253.65002441 15.93119812 C253.64164551 17.10682312 253.6332666 18.28244812 253.62463379 19.49369812 C253.62012207 20.6770575 253.61561035 21.86041687 253.61096191 23.07963562 C253.59914846 26.00937319 253.58267636 28.93901084 253.56213379 31.86869812 C252.78847536 31.38141644 252.01481693 30.89413477 251.21771431 30.39208698 C246.37876451 28.37555303 242.26204953 28.45557395 237.07284546 28.49447632 C236.01698466 28.49050191 234.96112387 28.48652751 233.87326729 28.48243266 C230.3356626 28.47280905 226.79845773 28.48462847 223.26086426 28.49638367 C220.7246282 28.49395576 218.1883931 28.49023646 215.65216064 28.48532104 C209.47930834 28.47688667 203.30660437 28.48242573 197.13376246 28.49458399 C189.94580236 28.50821378 182.75787003 28.50656532 175.56990029 28.50445066 C162.74648665 28.50126201 149.9231286 28.51292222 137.09973145 28.53251648 C124.65440173 28.55152807 112.20913714 28.5586018 99.76379395 28.55302429 C86.21084169 28.54696836 72.65791806 28.54713954 59.10496819 28.55851012 C57.66030192 28.55971742 56.21563566 28.56092341 54.77096939 28.56212807 C53.70475788 28.56303338 53.70475788 28.56303338 52.61700674 28.56395697 C47.60540472 28.56783792 42.59381334 28.56744184 37.58221054 28.56554222 C30.84022907 28.56320029 24.09834353 28.57173881 17.35637665 28.58760262 C14.87794212 28.59185513 12.39949909 28.59268956 9.92106247 28.58991241 C6.5464337 28.58670397 3.17205761 28.59573876 -0.20254517 28.60800171 C-1.19066574 28.60422239 -2.17878632 28.60044306 -3.19684994 28.59654921 C-4.09983 28.60238141 -5.00281006 28.6082136 -5.93315315 28.61422253 C-6.7121246 28.6150893 -7.49109604 28.61595608 -8.29367268 28.61684912 C-10.85629854 28.79472974 -10.85629854 28.79472974 -14.43786621 30.86869812 C-14.76786621 77.72869812 -15.09786621 124.58869812 -15.43786621 172.86869812 C73.33213379 172.86869812 162.10213379 172.86869812 253.56213379 172.86869812 C253.56213379 179.79869812 253.56213379 186.72869812 253.56213379 193.86869812 C164.46213379 193.86869812 75.36213379 193.86869812 -16.43786621 193.86869812 C-16.56161621 163.32307312 -16.68536621 132.77744812 -16.81286621 101.30619812 C-16.86749023 91.65941833 -16.92211426 82.01263855 -16.97839355 72.0735321 C-17.00549316 60.29850769 -17.00549316 60.29850769 -17.01052856 54.78704834 C-17.01612131 50.93547859 -17.03861591 47.08440443 -17.07131958 43.23297119 C-17.11249185 38.31907564 -17.12481051 33.40590015 -17.11629987 28.49184811 C-17.11807929 26.68914292 -17.1299684 24.88641243 -17.153157 23.08385551 C-17.18306474 20.64558316 -17.17579209 18.21009715 -17.15939331 15.77175903 C-17.1768693 15.06863618 -17.19434528 14.36551332 -17.21235085 13.64108372 C-17.12404391 8.74675869 -15.70574919 5.65443478 -12.38790572 2.20717806 C-8.56849628 -0.41441134 -4.49008537 -0.08105164 0 0 Z " fill="#EDEDED" transform="translate(137.4378662109375,310.1313018798828)"/>
<path d="M0 0 C4.27258524 3.37295871 8.15014027 7.15844702 12 11 C12.56340088 11.54366211 13.12680176 12.08732422 13.70727539 12.64746094 C17.75949276 16.59625745 21.32356866 20.70370824 24.6875 25.25 C25.20022461 25.94125977 25.71294922 26.63251953 26.24121094 27.34472656 C41.98970317 48.88466188 54.66499336 72.77350849 67.26171875 96.24584961 C71.05571996 103.30460778 74.97011551 110.28740159 78.9375 117.25 C94.79050718 145.10683402 94.79050718 145.10683402 91.10546875 160.8125 C90.144725 163.90860706 89.13038884 166.96207999 88 170 C87.34 170 86.68 170 86 170 C85.67427002 169.39341553 85.34854004 168.78683105 85.01293945 168.16186523 C77.38291678 153.97052881 69.59981259 139.8791981 61.62939453 125.87646484 C59.9786302 122.96227465 58.34458911 120.03927195 56.71484375 117.11328125 C30.01584231 67.08554137 30.01584231 67.08554137 -14.79296875 35.30078125 C-20.00145247 33.83008106 -24.92045331 33.49934132 -30.3125 33.5625 C-31.68498901 33.57385986 -31.68498901 33.57385986 -33.08520508 33.58544922 C-51.0394468 34.0196088 -64.4227927 42.92356338 -77 55 C-80.27293954 58.48322725 -83.14651016 62.16844209 -86 66 C-86.45777832 66.59538574 -86.91555664 67.19077148 -87.38720703 67.80419922 C-103.16314893 88.34132555 -115.39623013 111.44372664 -128 134 C-129.84786477 137.3046814 -131.69586435 140.60928682 -133.54443359 143.91357422 C-134.72067879 146.01726161 -135.8955964 148.12169216 -137.06884766 150.22705078 C-140.96275002 157.20087591 -144.95376651 164.11349017 -149 171 C-154.34494092 162.98258862 -155.27338572 152.37492636 -154 143 C-151.69871788 135.61760679 -147.93691052 129.02441268 -144.0625 122.375 C-139.44141439 114.33176012 -134.94041356 106.24055526 -130.5625 98.0625 C-124.50542412 86.79144761 -118.1103354 75.73717462 -111.60302734 64.72119141 C-110.1171018 62.19878414 -108.6435332 59.66973221 -107.17578125 57.13671875 C-97.5881219 40.61804807 -87.13773978 24.94162246 -74 11 C-72.95585937 9.84177734 -72.95585937 9.84177734 -71.890625 8.66015625 C-52.08464651 -12.48308721 -24.14138297 -16.05547398 0 0 Z " fill="#A7B0B2" transform="translate(287,18)"/>
<path d="M0 0 C1.08667969 -0.08121094 1.08667969 -0.08121094 2.1953125 -0.1640625 C17.86715329 -0.52973879 34.81737739 9.65819213 48.9375 15.6875 C51.41164723 16.73946716 53.88633687 17.7901441 56.36134338 18.84008789 C57.93486397 19.50787502 59.50790707 20.17678859 61.08042908 20.84692383 C65.82204436 22.86275195 70.58406423 24.79931745 75.41455078 26.59448242 C82.09929004 29.68211603 86.55865983 35.14229494 89.52734375 41.75390625 C91.13560669 46.96408527 91.93882196 53.11259583 89.58572388 58.20965576 C89.25724457 58.82979553 88.92876526 59.4499353 88.59033203 60.08886719 C86.24621108 64.66919842 84.29250351 69.36560386 82.36328125 74.1328125 C81.80449532 75.50250687 81.80449532 75.50250687 81.23442078 76.89987183 C80.0491553 79.80705326 78.86821851 82.71596933 77.6875 85.625 C76.91500685 87.52225487 76.14222245 89.41939118 75.36914062 91.31640625 C74.98700409 92.25498474 74.60486755 93.19356323 74.21115112 94.1605835 C73.43660912 96.06109685 72.6606653 97.9610395 71.8833313 99.8604126 C69.89286746 104.73166747 67.93556092 109.6123496 66.03271484 114.51855469 C65.64641403 115.49952118 65.26011322 116.48048767 64.86210632 117.49118042 C64.13486297 119.33943738 63.41873196 121.19212667 62.71662903 123.05007935 C59.618232 130.86012873 55.07831168 138.44724357 47.75 142.9375 C47.03585937 143.38996094 46.32171875 143.84242188 45.5859375 144.30859375 C40.64142387 146.97304014 36.52163272 147.80396504 30.92944336 147.82226562 C30.19696381 147.83219543 29.46448425 147.84212524 28.70980835 147.85235596 C26.29478126 147.88147798 23.88001736 147.89518623 21.46484375 147.90625 C20.21992755 147.91473213 20.21992755 147.91473213 18.94986153 147.92338562 C14.55290589 147.95333078 10.15608069 147.97181078 5.7590332 147.98046875 C1.24554758 147.99139827 -3.26671908 148.03937605 -7.77982426 148.09641266 C-11.27430029 148.13391837 -14.76849098 148.14409006 -18.26315117 148.1471405 C-19.92516134 148.15314369 -21.58716953 148.16903003 -23.24897957 148.19551086 C-34.72620088 148.36526178 -43.93260906 147.32736294 -53.00680542 139.42605591 C-58.78605383 133.6718286 -61.7954287 126.534431 -64.9375 119.125 C-65.49323876 117.84532163 -66.05006303 116.56611419 -66.60791016 115.28735352 C-68.30808433 111.36982765 -69.96967749 107.43664293 -71.625 103.5 C-72.13562988 102.29166504 -72.64625977 101.08333008 -73.17236328 99.83837891 C-76.42736029 92.0988143 -79.56708268 84.31937167 -82.625 76.5 C-83.00479004 75.5414209 -83.38458008 74.5828418 -83.77587891 73.59521484 C-92.38313857 51.66158278 -92.38313857 51.66158278 -88.765625 40.95703125 C-82.89017177 28.9445464 -71.46247059 24.8753097 -59.8125 20.25 C-58.20702527 19.59956358 -56.60213098 18.94769275 -54.99780273 18.29443359 C-51.7638006 16.98012343 -48.52649171 15.67453222 -45.28613281 14.37597656 C-40.98875486 12.6513112 -36.70687723 10.89122648 -32.4296875 9.1171875 C-30.01587272 8.11919131 -27.60166155 7.12215734 -25.1875 6.125 C-24.08237061 5.66706055 -22.97724121 5.20912109 -21.83862305 4.73730469 C-20.8206665 4.32125977 -19.80270996 3.90521484 -18.75390625 3.4765625 C-17.87806885 3.11643066 -17.00223145 2.75629883 -16.09985352 2.38525391 C-10.83345719 0.50146649 -5.55496763 0.16554539 0 0 Z M-39.4375 53.875 C-41.72633538 54.83605257 -44.01560924 55.79604998 -46.30514526 56.75543213 C-47.81433585 57.3887707 -49.32274989 58.02396309 -50.83035278 58.66107178 C-54.7079278 60.29634673 -58.59605777 61.89227711 -62.51318359 63.43066406 C-63.29956711 63.74298981 -64.08595062 64.05531555 -64.89616394 64.37710571 C-66.39976332 64.97249652 -67.90692019 65.55900189 -69.41792297 66.13534546 C-71.18892179 66.84066737 -72.91305296 67.66145774 -74.625 68.5 C-75.87457469 72.24872406 -75.20119492 73.2753305 -73.7734375 76.8984375 C-73.3405542 78.00421143 -72.9076709 79.10998535 -72.46166992 80.24926758 C-71.97931885 81.44575928 -71.49696777 82.64225098 -71 83.875 C-70.75601471 84.48604584 -70.51202942 85.09709167 -70.26065063 85.72665405 C-66.54689135 95.02319071 -62.67774891 104.25579148 -58.64508057 113.41851807 C-58.09545799 114.66881775 -57.5494405 115.92070919 -57.00726318 117.17425537 C-51.75716506 129.68053969 -51.75716506 129.68053969 -41.4375 137.875 C-40.78394531 138.17148437 -40.13039062 138.46796875 -39.45703125 138.7734375 C-35.47671932 140.35198338 -32.36557322 140.64171791 -28.09326172 140.67700195 C-27.43428391 140.68357315 -26.77530609 140.69014435 -26.09635925 140.69691467 C-23.91580075 140.71661971 -21.7353112 140.72830702 -19.5546875 140.73828125 C-18.80742527 140.74235678 -18.06016304 140.7464323 -17.2902565 140.75063133 C-13.33120247 140.77148512 -9.37218298 140.78578701 -5.41308594 140.79516602 C-1.34120705 140.80619927 2.73012067 140.84056472 6.8018055 140.88033772 C9.94700064 140.90660257 13.09206676 140.91486677 16.23736191 140.91844749 C17.73714779 140.92329194 19.23692874 140.93484427 20.7366066 140.95348549 C31.85486774 141.08304189 40.48287727 139.94584604 48.89111328 132.17529297 C51.45604329 129.27951315 52.85545351 126.11726657 54.3125 122.5625 C54.6623999 121.7485376 55.0122998 120.9345752 55.37280273 120.09594727 C56.45528052 117.55376798 57.51557725 115.00329366 58.56872559 112.44885254 C59.486723 110.22995342 60.41337089 108.01476953 61.34082031 105.79980469 C63.55150271 100.51723389 65.74710573 95.22851116 67.9375 89.9375 C68.30487274 89.05240753 68.67224548 88.16731506 69.05075073 87.25540161 C70.10355881 84.71302124 71.14868438 82.16762484 72.19140625 79.62109375 C72.512836 78.8468808 72.83426575 78.07266785 73.16543579 77.2749939 C74.8943388 73.02616514 74.8943388 73.02616514 75.375 68.5 C69.61825934 66.08083699 63.86055989 63.66397389 58.10205078 61.24902344 C56.15290771 60.4312593 54.20400501 59.61292196 52.25537109 58.79394531 C41.93039663 54.45500406 31.59381756 50.14830775 21.203125 45.96875 C20.37069275 45.6322644 19.5382605 45.29577881 18.68060303 44.94909668 C17.90847473 44.64040649 17.13634644 44.33171631 16.34082031 44.01367188 C15.66867493 43.74421753 14.99652954 43.47476318 14.30401611 43.19714355 C9.8433051 41.58504923 5.75109583 41.24634429 1 41.125 C-0.28648437 41.07601562 -1.57296875 41.02703125 -2.8984375 40.9765625 C-15.20451568 41.66590995 -28.16893984 49.12407306 -39.4375 53.875 Z " fill="#435355" transform="translate(255.625,120.5)"/>
<path d="M0 0 C0.33 0 0.66 0 1 0 C1 54.45 1 108.9 1 165 C89.77 165 178.54 165 270 165 C270 171.93 270 178.86 270 186 C180.9 186 91.8 186 0 186 C0 124.62 0 63.24 0 0 Z " fill="#D2D8D8" transform="translate(121,318)"/>
<path d="M0 0 C1.08667969 -0.08121094 1.08667969 -0.08121094 2.1953125 -0.1640625 C17.86715329 -0.52973879 34.81737739 9.65819213 48.9375 15.6875 C51.41164723 16.73946716 53.88633687 17.7901441 56.36134338 18.84008789 C57.93486397 19.50787502 59.50790707 20.17678859 61.08042908 20.84692383 C65.82204436 22.86275195 70.58406423 24.79931745 75.41455078 26.59448242 C82.09929004 29.68211603 86.55865983 35.14229494 89.52734375 41.75390625 C91.13560669 46.96408527 91.93882196 53.11259583 89.58572388 58.20965576 C89.25724457 58.82979553 88.92876526 59.4499353 88.59033203 60.08886719 C86.24621108 64.66919842 84.29250351 69.36560386 82.36328125 74.1328125 C81.80449532 75.50250687 81.80449532 75.50250687 81.23442078 76.89987183 C80.0491553 79.80705326 78.86821851 82.71596933 77.6875 85.625 C76.91500685 87.52225487 76.14222245 89.41939118 75.36914062 91.31640625 C74.98700409 92.25498474 74.60486755 93.19356323 74.21115112 94.1605835 C73.43660912 96.06109685 72.6606653 97.9610395 71.8833313 99.8604126 C69.89286746 104.73166747 67.93556092 109.6123496 66.03271484 114.51855469 C65.64641403 115.49952118 65.26011322 116.48048767 64.86210632 117.49118042 C64.13486297 119.33943738 63.41873196 121.19212667 62.71662903 123.05007935 C59.618232 130.86012873 55.07831168 138.44724357 47.75 142.9375 C47.03585937 143.38996094 46.32171875 143.84242188 45.5859375 144.30859375 C40.64142387 146.97304014 36.52163272 147.80396504 30.92944336 147.82226562 C30.19696381 147.83219543 29.46448425 147.84212524 28.70980835 147.85235596 C26.29478126 147.88147798 23.88001736 147.89518623 21.46484375 147.90625 C20.21992755 147.91473213 20.21992755 147.91473213 18.94986153 147.92338562 C14.55290589 147.95333078 10.15608069 147.97181078 5.7590332 147.98046875 C1.24554758 147.99139827 -3.26671908 148.03937605 -7.77982426 148.09641266 C-11.27430029 148.13391837 -14.76849098 148.14409006 -18.26315117 148.1471405 C-19.92516134 148.15314369 -21.58716953 148.16903003 -23.24897957 148.19551086 C-34.72620088 148.36526178 -43.93260906 147.32736294 -53.00680542 139.42605591 C-58.78605383 133.6718286 -61.7954287 126.534431 -64.9375 119.125 C-65.49323876 117.84532163 -66.05006303 116.56611419 -66.60791016 115.28735352 C-68.30808433 111.36982765 -69.96967749 107.43664293 -71.625 103.5 C-72.13562988 102.29166504 -72.64625977 101.08333008 -73.17236328 99.83837891 C-76.42736029 92.0988143 -79.56708268 84.31937167 -82.625 76.5 C-83.00479004 75.5414209 -83.38458008 74.5828418 -83.77587891 73.59521484 C-92.38313857 51.66158278 -92.38313857 51.66158278 -88.765625 40.95703125 C-82.89017177 28.9445464 -71.46247059 24.8753097 -59.8125 20.25 C-58.20702527 19.59956358 -56.60213098 18.94769275 -54.99780273 18.29443359 C-51.7638006 16.98012343 -48.52649171 15.67453222 -45.28613281 14.37597656 C-40.98875486 12.6513112 -36.70687723 10.89122648 -32.4296875 9.1171875 C-30.01587272 8.11919131 -27.60166155 7.12215734 -25.1875 6.125 C-24.08237061 5.66706055 -22.97724121 5.20912109 -21.83862305 4.73730469 C-20.8206665 4.32125977 -19.80270996 3.90521484 -18.75390625 3.4765625 C-17.87806885 3.11643066 -17.00223145 2.75629883 -16.09985352 2.38525391 C-10.83345719 0.50146649 -5.55496763 0.16554539 0 0 Z M-35.1875 19.25 C-37.64543924 20.29607638 -40.10401356 21.34064428 -42.56283569 22.38464355 C-44.18617024 23.07441208 -45.80891611 23.76556774 -47.43106079 24.45812988 C-51.4123168 26.15444955 -55.40148298 27.82301392 -59.41748047 29.43554688 C-60.5662693 29.89879364 -60.5662693 29.89879364 -61.73826599 30.37139893 C-63.17052367 30.94661448 -64.60499367 31.51636767 -66.04212952 32.07928467 C-72.35813163 34.6194229 -77.62057358 37.17489174 -80.625 43.5 C-83.66053926 51.77874344 -80.2516521 59.38252144 -77.375 67.1875 C-76.70815186 69.02417236 -76.70815186 69.02417236 -76.02783203 70.89794922 C-71.49335846 83.26101426 -66.31915638 95.33946967 -60.99414062 107.38134766 C-59.73565921 110.24793853 -58.5093573 113.12543754 -57.296875 116.01171875 C-56.61477702 117.61206173 -55.93250064 119.2123287 -55.25 120.8125 C-54.96495605 121.5048877 -54.67991211 122.19727539 -54.38623047 122.91064453 C-51.71064728 129.0775939 -47.80012619 135.10643212 -41.4375 137.875 C-40.78394531 138.17148437 -40.13039062 138.46796875 -39.45703125 138.7734375 C-35.47671932 140.35198338 -32.36557322 140.64171791 -28.09326172 140.67700195 C-27.104795 140.68685875 -27.104795 140.68685875 -26.09635925 140.69691467 C-23.91580075 140.71661971 -21.7353112 140.72830702 -19.5546875 140.73828125 C-18.80742527 140.74235678 -18.06016304 140.7464323 -17.2902565 140.75063133 C-13.33120247 140.77148512 -9.37218298 140.78578701 -5.41308594 140.79516602 C-1.34120705 140.80619927 2.73012067 140.84056472 6.8018055 140.88033772 C9.94700064 140.90660257 13.09206676 140.91486677 16.23736191 140.91844749 C17.73714779 140.92329194 19.23692874 140.93484427 20.7366066 140.95348549 C31.87978213 141.08333221 40.42130025 140.02291964 48.8614502 132.24780273 C51.63072019 129.04993131 53.14219515 125.41519952 54.734375 121.53125 C55.29484528 120.22637634 55.29484528 120.22637634 55.86663818 118.8951416 C57.05725 116.10514765 58.21849199 113.3042846 59.375 110.5 C60.14897104 108.64708633 60.92305931 106.79422162 61.69726562 104.94140625 C64.03815362 99.3070206 66.33402265 93.65482152 68.625 88 C69.79363902 85.12543895 70.96331143 82.2513005 72.13330078 79.37728882 C72.87828978 77.54591777 73.6221368 75.71408168 74.36474609 73.88174438 C75.88925385 70.12377114 77.41917765 66.37015723 79.015625 62.64208984 C79.469375 61.58199707 79.923125 60.5219043 80.390625 59.4296875 C80.95958496 58.12620361 80.95958496 58.12620361 81.54003906 56.79638672 C83.27977604 52.01160133 82.95668565 48.21084014 81.3125 43.375 C76.59324915 36.37224068 70.13069172 33.11534223 62.48046875 30.00390625 C61.53424149 29.6072728 60.58801422 29.21063934 59.6131134 28.80198669 C56.60117302 27.54324294 53.5820418 26.30288064 50.5625 25.0625 C48.57829732 24.23487073 46.59456891 23.40610348 44.61132812 22.57617188 C39.78911608 20.56401938 34.95571234 18.58105412 30.11444092 16.61523438 C28.32198323 15.88551963 26.53140701 15.15116179 24.74298096 14.41162109 C22.31897001 13.40968644 19.88913777 12.42349541 17.45703125 11.44140625 C16.75909958 11.14955948 16.06116791 10.85771271 15.34208679 10.55702209 C-2.29928843 3.5438957 -19.0631329 12.35234535 -35.1875 19.25 Z " fill="#343434" transform="translate(255.625,120.5)"/>
<path d="M0 0 C9.33934412 5.32259966 15.80245176 12.28680866 19.5078125 22.49609375 C22.04118426 32.50220455 20.23701666 41.38211672 15.20703125 50.2578125 C9.90935726 58.05314917 2.34114237 63.80585039 -6.79296875 66.2578125 C-18.98222995 67.53314768 -28.30786655 66.25082678 -38.1640625 58.359375 C-44.79583062 52.20217377 -49.04763387 44.29894784 -50.1640625 35.25 C-50.38900856 24.69076747 -47.81032955 16.47034363 -40.98046875 8.3203125 C-30.22575977 -2.85972396 -14.46293626 -6.85970111 0 0 Z " fill="#D1EEFB" transform="translate(270.79296875,375.7421875)"/>
<path d="M0 0 C0.33 0 0.66 0 1 0 C1 43.23 1 86.46 1 131 C41.11597731 131.22862631 41.11597731 131.22862631 69 111 C74.56803324 138.9727384 74.56803324 138.9727384 67 153 C64.3083912 156.70991708 61.35158221 159.88053751 58 163 C57.360625 163.59683594 56.72125 164.19367188 56.0625 164.80859375 C47.68541226 171.80695246 37.66494185 173.75578328 27 173 C27.2165625 172.14728516 27.2165625 172.14728516 27.4375 171.27734375 C27.623125 170.50519531 27.80875 169.73304688 28 168.9375 C28.185625 168.18339844 28.37125 167.42929687 28.5625 166.65234375 C29.18987415 163.29691864 29.18987415 163.29691864 29 157 C19.43 156.67 9.86 156.34 0 156 C0 104.52 0 53.04 0 0 Z " fill="#516367" transform="translate(398,318)"/>
<path d="M0 0 C0.33 0 0.66 0 1 0 C1.20625 1.010625 1.4125 2.02125 1.625 3.0625 C3.88405677 10.73710381 9.67932152 14.90869799 16.3984375 18.71484375 C20.15653253 20.57132012 23.9767648 21.856381 28 23 C28.99 23.33 29.98 23.66 31 24 C33.80160502 24.1539263 36.58298425 24.25738045 39.38671875 24.31640625 C40.20372757 24.33718735 41.02073639 24.35796844 41.86250305 24.37937927 C44.47075034 24.44473079 47.07909775 24.50369273 49.6875 24.5625 C51.45639054 24.60569892 53.22527097 24.64931365 54.99414062 24.69335938 C59.32932597 24.80117956 63.66458802 24.90035972 68 25 C68 33.25 68 41.5 68 50 C66.06253906 50.06058594 64.12507813 50.12117188 62.12890625 50.18359375 C59.60676241 50.26797774 57.08462743 50.3526268 54.5625 50.4375 C53.28310547 50.47681641 52.00371094 50.51613281 50.68554688 50.55664062 C49.47060547 50.59853516 48.25566406 50.64042969 47.00390625 50.68359375 C45.31503296 50.73858032 45.31503296 50.73858032 43.59204102 50.79467773 C41.07146559 50.71218045 41.07146559 50.71218045 40 52 C39.90047122 53.58075127 39.87031398 55.16612545 39.875 56.75 C39.87242188 57.61109375 39.86984375 58.4721875 39.8671875 59.359375 C39.99988682 61.99774977 40.41690979 64.42699877 41 67 C28.511915 67.64102337 19.66385615 65.10202081 10 57 C2.39720799 49.87053356 -2.5686957 41.12481519 -3.203125 30.64453125 C-3.33156658 20.14443218 -2.00217022 10.29687543 0 0 Z " fill="#506367" transform="translate(45,424)"/>
<path d="M0 0 C9.33934412 5.32259966 15.80245176 12.28680866 19.5078125 22.49609375 C22.04118426 32.50220455 20.23701666 41.38211672 15.20703125 50.2578125 C9.90935726 58.05314917 2.34114237 63.80585039 -6.79296875 66.2578125 C-18.98222995 67.53314768 -28.30786655 66.25082678 -38.1640625 58.359375 C-44.79583062 52.20217377 -49.04763387 44.29894784 -50.1640625 35.25 C-50.38900856 24.69076747 -47.81032955 16.47034363 -40.98046875 8.3203125 C-30.22575977 -2.85972396 -14.46293626 -6.85970111 0 0 Z M-37.09375 15.90234375 C-41.61090627 22.16405692 -42.84195454 28.61520175 -41.79296875 36.2578125 C-39.04247519 45.9480129 -34.75449083 50.99304473 -26.1328125 56.0234375 C-20.52920746 58.97959642 -14.98781048 59.00409168 -8.79296875 58.2578125 C-0.68773704 55.61459012 5.03824326 51.7177489 9.20703125 44.2578125 C9.82578125 43.1646875 10.44453125 42.0715625 11.08203125 40.9453125 C13.36649122 33.45736038 13.12103186 26.40208642 9.52734375 19.390625 C5.80892858 13.38395435 1.65459326 8.46665279 -5.0703125 5.8828125 C-18.72285366 2.74880018 -28.32139979 5.33760764 -37.09375 15.90234375 Z " fill="#393939" transform="translate(270.79296875,375.7421875)"/>
<path d="M0 0 C6.38363921 4.7339347 9.50380038 9.51140115 12 17 C13.1993195 25.85067425 11.03942926 32.68159318 6 40 C3.55514763 42.50906062 1.04854051 44.29305688 -2 46 C-3.60875 46.928125 -3.60875 46.928125 -5.25 47.875 C-12.5879418 50.07638254 -19.44428004 50.12123243 -26.4375 46.8125 C-30.83991886 44.32109897 -34.68615312 41.62769376 -37 37 C-36.12859375 37.06960938 -35.2571875 37.13921875 -34.359375 37.2109375 C-24.10690256 37.67695897 -16.86146816 35.76972997 -8.83984375 29.2421875 C-2.30297525 22.60816809 0.21463517 13.90949024 0.25 4.75 C0.18734461 3.16571367 0.11207895 1.58155847 0 0 Z " fill="#A4DEF7" transform="translate(271,385)"/>
<path d="M0 0 C6.6 0 13.2 0 20 0 C20 6.93 20 13.86 20 21 C11.50622096 19.58437016 6.92891835 15.79639673 2 9 C0.2194199 5.51977527 0 4.00849055 0 0 Z " fill="#F8F8F8" transform="translate(93,482)"/>
<path d="M0 0 C6.6 0 13.2 0 20 0 C18.78309693 8.51832147 16.19281509 12.46246175 9.73828125 17.7421875 C6.50740435 20.0800355 3.96469536 21 0 21 C0 14.07 0 7.14 0 0 Z " fill="#F8F8F8" transform="translate(399,482)"/>
</svg>
