<?xml version="1.0" encoding="UTF-8"?>
<svg version="1.1" xmlns="http://www.w3.org/2000/svg" width="712" height="912" >
<path d="M0 0 C1.01790619 0.00215515 2.03581238 0.0043103 3.08456421 0.00653076 C17.69363523 0.05620146 32.02575853 0.30709809 46.375 3.3125 C47.34985352 3.51117676 48.32470703 3.70985352 49.32910156 3.91455078 C97.7109774 14.03517194 141.69928269 35.9516877 177.375 70.3125 C178.3640332 71.26068604 178.3640332 71.26068604 179.37304688 72.22802734 C188.86130305 81.37247479 197.6012044 90.66984009 205.375 101.3125 C206.23306152 102.46355017 207.09113451 103.61459177 207.94921875 104.765625 C213.98736829 112.95680614 219.34595521 121.47054105 224.375 130.3125 C224.73948242 130.94430176 225.10396484 131.57610352 225.47949219 132.22705078 C247.08534998 169.97532572 256.85198095 212.74189997 256.6875 255.9375 C256.68534485 256.95540619 256.6831897 257.97331238 256.68096924 259.02206421 C256.63129854 273.63113523 256.38040191 287.96325853 253.375 302.3125 C253.07698486 303.77478027 253.07698486 303.77478027 252.77294922 305.26660156 C242.65232806 353.6484774 220.7358123 397.63678269 186.375 433.3125 C185.74287598 433.97185547 185.11075195 434.63121094 184.45947266 435.31054688 C175.31502521 444.79880305 166.01765991 453.5387044 155.375 461.3125 C154.22394983 462.17056152 153.07290823 463.02863451 151.921875 463.88671875 C143.73224019 469.92427396 135.22961724 475.30707302 126.375 480.3125 C125.66778809 480.7146875 124.96057617 481.116875 124.23193359 481.53125 C101.09654164 494.5566741 75.92537591 503.30551461 49.9375 508.625 C49.21860596 508.77235596 48.49971191 508.91971191 47.7590332 509.0715332 C33.08339502 511.86090125 18.55831162 512.66142619 3.64770508 512.62817383 C0.70811513 512.6250221 -2.2304558 512.64854926 -5.16992188 512.67382812 C-18.54306192 512.71848737 -31.43916711 511.51301542 -44.625 509.3125 C-46.33055054 509.03031616 -46.33055054 509.03031616 -48.07055664 508.74243164 C-91.33802759 500.97044532 -132.38793216 480.98345309 -165.625 452.3125 C-166.37007813 451.67828125 -167.11515625 451.0440625 -167.8828125 450.390625 C-181.38779833 438.57948485 -194.05918743 425.82889772 -204.625 411.3125 C-205.48149066 410.16255169 -206.33826433 409.01281411 -207.1953125 407.86328125 C-213.23534209 399.67315742 -218.61867614 391.16870382 -223.625 382.3125 C-224.0271875 381.60528809 -224.429375 380.89807617 -224.84375 380.16943359 C-237.8691741 357.03404164 -246.61801461 331.86287591 -251.9375 305.875 C-252.08485596 305.15610596 -252.23221191 304.43721191 -252.3840332 303.6965332 C-255.35789088 288.05024391 -255.99800362 272.57681954 -255.9375 256.6875 C-255.93534485 255.66959381 -255.9331897 254.65168762 -255.93096924 253.60293579 C-255.88129854 238.99386477 -255.63040191 224.66174147 -252.625 210.3125 C-252.42632324 209.33764648 -252.22764648 208.36279297 -252.02294922 207.35839844 C-241.90232806 158.9765226 -219.9858123 114.98821731 -185.625 79.3125 C-184.99287598 78.65314453 -184.36075195 77.99378906 -183.70947266 77.31445312 C-174.56502521 67.82619695 -165.26765991 59.0862956 -154.625 51.3125 C-153.47394983 50.45443848 -152.32290823 49.59636549 -151.171875 48.73828125 C-142.98224019 42.70072604 -134.47961724 37.31792698 -125.625 32.3125 C-124.91778809 31.9103125 -124.21057617 31.508125 -123.48193359 31.09375 C-100.34654164 18.0683259 -75.17537591 9.31948539 -49.1875 4 C-48.46860596 3.85264404 -47.74971191 3.70528809 -47.0090332 3.5534668 C-31.36274391 0.57960912 -15.88931954 -0.06050362 0 0 Z " fill="White" transform="translate(255.625,-0.3125)"/>
<path d="M0 0 C8.49137759 4.03631236 16.22500432 9.2932708 24.05615234 14.45849609 C28.39784541 17.30069783 32.78256468 20.07518533 37.1640625 22.85546875 C39.04298547 24.04945286 40.92189157 25.2434635 42.80078125 26.4375 C43.73970215 27.03385254 44.67862305 27.63020508 45.64599609 28.24462891 C50.25790474 31.17470645 54.86711951 34.10901453 59.4765625 37.04296875 C61.30988242 38.20965649 63.14321577 39.37632314 64.9765625 40.54296875 C92.4765625 58.04296875 92.4765625 58.04296875 119.9765625 75.54296875 C120.8850293 76.12103271 121.79349609 76.69909668 122.72949219 77.29467773 C124.55324778 78.45535262 126.37681711 79.61632022 128.20019531 80.77758789 C132.9285423 83.78841993 137.66052412 86.79330317 142.3984375 89.7890625 C143.37425781 90.40716797 144.35007812 91.02527344 145.35546875 91.66210938 C147.20060754 92.83069727 149.04686962 93.99751445 150.89453125 95.16210938 C170.13471448 107.35927272 170.13471448 107.35927272 173.4765625 114.04296875 C174.06685441 119.71885251 173.79097313 124.23172751 170.4765625 129.04296875 C165.799781 133.63528825 160.47614302 137.12945995 154.9140625 140.54296875 C153.22103324 141.59714101 151.52833823 142.65185023 149.8359375 143.70703125 C148.95744141 144.25262695 148.07894531 144.79822266 147.17382812 145.36035156 C142.65084969 148.18189097 138.15844099 151.05117588 133.6640625 153.91796875 C131.80344724 155.10296167 129.94276974 156.28785685 128.08203125 157.47265625 C127.15567871 158.06272461 126.22932617 158.65279297 125.27490234 159.26074219 C120.67632488 162.18951688 116.07638223 165.11614566 111.4765625 168.04296875 C109.64322246 169.20962488 107.80988913 170.37629155 105.9765625 171.54296875 C102.30989583 173.87630208 98.64322917 176.20963542 94.9765625 178.54296875 C93.61494995 179.40946045 93.61494995 179.40946045 92.22583008 180.29345703 C90.39496497 181.45853823 88.5640731 182.62357739 86.7331543 183.78857422 C82.11183537 186.72915196 77.4910033 189.67048967 72.87109375 192.61328125 C63.48301567 198.59228069 54.08778696 204.5593632 44.67260742 210.49560547 C39.43109786 213.80238863 34.20140989 217.1273003 28.97631836 220.45996094 C14.32243136 229.80360286 14.32243136 229.80360286 7.9140625 233.79296875 C6.96402344 234.3859375 6.01398438 234.97890625 5.03515625 235.58984375 C0.05897945 238.41600829 -3.74409874 239.6513202 -9.5234375 239.04296875 C-14.36920741 236.38254606 -18.73699806 233.40228706 -20.5234375 228.04296875 C-20.63251033 225.16166055 -20.68439191 222.30382972 -20.6907959 219.42195129 C-20.69658928 218.53073458 -20.70238267 217.63951786 -20.70835161 216.72129458 C-20.72644772 213.72281169 -20.73729348 210.72434767 -20.74804688 207.72583008 C-20.75921992 205.58075793 -20.77073317 203.43568753 -20.78256226 201.2906189 C-20.81914478 194.23543737 -20.84434079 187.18023786 -20.8671875 180.125 C-20.87113337 178.9251452 -20.87507923 177.72529041 -20.87914467 176.48907638 C-20.91556163 165.17570245 -20.94700952 153.86232232 -20.96825409 142.54890919 C-20.99583933 128.07223348 -21.04662617 113.59604719 -21.12872839 99.11957532 C-21.18448885 88.94368267 -21.21348562 78.76792295 -21.2227273 68.59188288 C-21.22898922 62.51268195 -21.24715165 56.43405475 -21.29411316 50.35502052 C-21.3377561 44.63471914 -21.34827476 38.91530572 -21.33348465 33.19486618 C-21.33381351 31.09702388 -21.34610628 28.99914365 -21.37133408 26.90145302 C-21.574442 9.06982252 -21.574442 9.06982252 -17.22277832 3.85771179 C-11.9677402 -0.81678205 -6.68956232 -2.53706311 0 0 Z" fill="Black" transform="translate(240.6285, 164.3484375) scale(3)"/>
</svg>
